# Blender v3.0.0 OBJ File: 'FastFood LowPoly Pack.blend'
# www.blender.org
mtllib Cup.mtl
o Cup_Circle.013
v 0.000000 -2.886781 -0.872264
v -0.512704 -2.886781 -0.705676
v -0.829572 -2.886781 -0.269544
v -0.829572 -2.886781 0.269544
v -0.512704 -2.886781 0.705676
v 0.000000 -2.886781 0.872264
v 0.512704 -2.886781 0.705676
v 0.829572 -2.886781 0.269544
v 0.829572 -2.886781 -0.269544
v 0.512703 -2.886781 -0.705676
v 0.000000 1.095956 -1.283758
v -0.754574 1.095956 -1.038582
v -1.220926 1.095956 -0.396703
v -1.220926 1.095956 0.396703
v -0.754574 1.095956 1.038582
v 0.000000 1.095956 1.283758
v 0.754574 1.095956 1.038582
v 1.220926 1.095956 0.396703
v 1.220926 1.095956 -0.396703
v 0.754573 1.095956 -1.038582
v 0.000000 1.095956 -1.380134
v -0.811222 1.095956 -1.116552
v -1.312586 1.095956 -0.426485
v -1.312585 1.095956 0.426485
v -0.811222 1.095956 1.116552
v 0.000000 1.095956 1.380134
v 0.811223 1.095956 1.116552
v 1.312586 1.095956 0.426485
v 1.312586 1.095956 -0.426485
v 0.811222 1.095956 -1.116552
v 0.000000 1.407419 -1.303773
v -0.766339 1.407419 -1.054775
v -1.239962 1.407419 -0.402888
v -1.239962 1.407419 0.402888
v -0.766339 1.407419 1.054775
v 0.000000 1.407419 1.303773
v 0.766339 1.407419 1.054775
v 1.239962 1.407419 0.402888
v 1.239962 1.407419 -0.402888
v 0.766338 1.407419 -1.054775
v 0.000000 1.407419 -1.151020
v -0.676553 1.407419 -0.931195
v -1.094685 1.407419 -0.355685
v -1.094685 1.407419 0.355685
v -0.676553 1.407419 0.931195
v 0.000000 1.407419 1.151020
v 0.676553 1.407419 0.931195
v 1.094685 1.407419 0.355685
v 1.094685 1.407419 -0.355685
v 0.676552 1.407419 -0.931195
v 0.000000 1.335543 -1.151020
v -0.676553 1.335543 -0.931195
v -1.094685 1.335543 -0.355685
v -1.094685 1.335543 0.355685
v -0.676553 1.335543 0.931195
v 0.000000 1.335543 1.151020
v 0.676553 1.335543 0.931195
v 1.094685 1.335543 0.355685
v 1.094685 1.335543 -0.355685
v 0.676552 1.335543 -0.931195
v 0.000000 1.335543 -0.836503
v -0.491684 1.335543 -0.676745
v -0.795561 1.335543 -0.258494
v -0.795561 1.335543 0.258494
v -0.491684 1.335543 0.676745
v 0.000000 1.335543 0.836503
v 0.491684 1.335543 0.676745
v 0.795561 1.335543 0.258494
v 0.795561 1.335543 -0.258494
v 0.491684 1.335543 -0.676745
v 0.000000 1.484524 -0.778202
v -0.457416 1.484524 -0.629579
v -0.740115 1.484524 -0.240478
v -0.740114 1.484524 0.240478
v -0.457416 1.484524 0.629579
v 0.000000 1.484524 0.778202
v 0.457416 1.484524 0.629579
v 0.740115 1.484524 0.240478
v 0.740115 1.484524 -0.240478
v 0.457416 1.484524 -0.629579
v 0.000000 1.269138 -0.102872
v -0.089090 1.269138 -0.051436
v -0.089090 1.269138 0.051436
v 0.000000 1.269138 0.102873
v 0.089090 1.269138 0.051436
v 0.089090 1.269138 -0.051436
v 0.000000 2.886781 -0.102872
v -0.089090 2.886781 -0.051436
v -0.089090 2.886781 0.051436
v 0.000000 2.886781 0.102873
v 0.089090 2.886781 0.051436
v 0.089090 2.886781 -0.051436
vt 0.375000 0.875000
vt 0.375000 0.875000
vt 0.375000 0.875000
vt 0.375000 0.875000
vt 0.375000 0.875000
vt 0.375000 0.875000
vt 0.375000 0.875000
vt 0.375000 0.875000
vt 0.375000 0.875000
vt 0.375000 0.875000
vt 0.375000 0.875000
vt 0.375000 0.875000
vt 0.375000 0.875000
vt 0.375000 0.875000
vt 0.375000 0.875000
vt 0.375000 0.875000
vt 0.375000 0.875000
vt 0.375000 0.875000
vt 0.375000 0.875000
vt 0.375000 0.875000
vt 0.875000 0.125000
vt 0.875000 0.125000
vt 0.875000 0.125000
vt 0.875000 0.125000
vt 0.875000 0.125000
vt 0.875000 0.125000
vt 0.875000 0.125000
vt 0.875000 0.125000
vt 0.875000 0.125000
vt 0.875000 0.125000
vt 0.875000 0.125000
vt 0.875000 0.125000
vt 0.875000 0.125000
vt 0.875000 0.125000
vt 0.875000 0.125000
vt 0.875000 0.125000
vt 0.875000 0.125000
vt 0.875000 0.125000
vt 0.875000 0.125000
vt 0.875000 0.125000
vt 0.875000 0.125000
vt 0.875000 0.125000
vt 0.875000 0.125000
vt 0.875000 0.125000
vt 0.875000 0.125000
vt 0.875000 0.125000
vt 0.875000 0.125000
vt 0.875000 0.125000
vt 0.875000 0.125000
vt 0.875000 0.125000
vt 0.875000 0.125000
vt 0.875000 0.125000
vt 0.875000 0.125000
vt 0.875000 0.125000
vt 0.875000 0.125000
vt 0.875000 0.125000
vt 0.875000 0.125000
vt 0.875000 0.125000
vt 0.875000 0.125000
vt 0.875000 0.125000
vt 0.875000 0.125000
vt 0.875000 0.125000
vt 0.875000 0.125000
vt 0.875000 0.125000
vt 0.875000 0.125000
vt 0.875000 0.125000
vt 0.875000 0.125000
vt 0.875000 0.125000
vt 0.875000 0.125000
vt 0.875000 0.125000
vt 0.875000 0.125000
vt 0.875000 0.125000
vt 0.875000 0.125000
vt 0.875000 0.125000
vt 0.875000 0.125000
vt 0.875000 0.125000
vt 0.875000 0.125000
vt 0.875000 0.125000
vt 0.875000 0.125000
vt 0.875000 0.125000
vt 0.875000 0.125000
vt 0.875000 0.125000
vt 0.875000 0.125000
vt 0.875000 0.125000
vt 0.875000 0.125000
vt 0.875000 0.125000
vt 0.875000 0.125000
vt 0.875000 0.125000
vt 0.875000 0.125000
vt 0.875000 0.125000
vt 0.875000 0.125000
vt 0.875000 0.125000
vt 0.875000 0.125000
vt 0.875000 0.125000
vt 0.875000 0.125000
vt 0.875000 0.125000
vt 0.875000 0.125000
vt 0.875000 0.125000
vt 0.875000 0.125000
vt 0.875000 0.125000
vt 0.875000 0.125000
vt 0.875000 0.125000
vn -0.8051 -0.0978 -0.5850
vn 0.8051 -0.0978 -0.5850
vn 0.3075 -0.0978 0.9465
vn -0.9952 -0.0978 0.0000
vn 0.3075 -0.0978 -0.9465
vn 0.8051 -0.0978 0.5850
vn -0.8051 -0.0978 0.5850
vn -0.3075 -0.0978 -0.9465
vn 0.9952 -0.0978 0.0000
vn -0.3075 -0.0978 0.9465
vn 0.0000 -1.0000 -0.0000
vn 0.3009 0.2271 0.9262
vn -0.9739 0.2271 0.0000
vn 0.3009 0.2271 -0.9262
vn 0.7879 0.2271 0.5724
vn -0.7879 0.2271 0.5724
vn -0.3009 0.2271 -0.9262
vn 0.9739 0.2271 0.0000
vn -0.3009 0.2271 0.9262
vn -0.7879 0.2271 -0.5724
vn 0.7879 0.2271 -0.5724
vn 0.0000 1.0000 -0.0000
vn -0.3090 0.0000 0.9511
vn -0.8090 0.0000 -0.5878
vn 0.8090 0.0000 -0.5878
vn 0.3090 0.0000 0.9511
vn -1.0000 0.0000 0.0000
vn 0.3090 0.0000 -0.9511
vn 0.8090 0.0000 0.5878
vn -0.8090 0.0000 0.5878
vn -0.3090 0.0000 -0.9511
vn 1.0000 0.0000 -0.0000
vn -0.7582 0.3488 0.5509
vn -0.2896 0.3488 -0.8913
vn 0.9372 0.3488 0.0000
vn -0.2896 0.3488 0.8913
vn -0.7582 0.3488 -0.5509
vn 0.7582 0.3488 -0.5509
vn 0.2896 0.3488 0.8913
vn -0.9372 0.3488 0.0000
vn 0.2896 0.3488 -0.8913
vn 0.7582 0.3488 0.5509
vn 0.5000 0.0000 0.8660
vn -0.5000 0.0000 0.8660
vn -0.5000 0.0000 -0.8660
vn 0.5000 0.0000 -0.8660
usemtl Textures
s off
f 2/1/1 3/2/1 13/3/1 12/4/1
f 9/5/2 10/6/2 20/7/2 19/8/2
f 6/9/3 7/10/3 17/11/3 16/12/3
f 3/2/4 4/13/4 14/14/4 13/3/4
f 10/6/5 1/15/5 11/16/5 20/7/5
f 7/10/6 8/17/6 18/18/6 17/11/6
f 4/13/7 5/19/7 15/20/7 14/14/7
f 1/15/8 2/1/8 12/4/8 11/16/8
f 8/17/9 9/5/9 19/8/9 18/18/9
f 5/19/10 6/9/10 16/12/10 15/20/10
f 12/21/11 13/22/11 23/23/11 22/24/11
f 19/25/11 20/26/11 30/27/11 29/28/11
f 16/29/11 17/30/11 27/31/11 26/32/11
f 13/22/11 14/33/11 24/34/11 23/23/11
f 20/26/11 11/35/11 21/36/11 30/27/11
f 17/30/11 18/37/11 28/38/11 27/31/11
f 14/33/11 15/39/11 25/40/11 24/34/11
f 11/35/11 12/21/11 22/24/11 21/36/11
f 18/37/11 19/25/11 29/28/11 28/38/11
f 15/39/11 16/29/11 26/32/11 25/40/11
f 26/32/12 27/31/12 37/41/12 36/42/12
f 23/23/13 24/34/13 34/43/13 33/44/13
f 30/27/14 21/36/14 31/45/14 40/46/14
f 27/31/15 28/38/15 38/47/15 37/41/15
f 24/34/16 25/40/16 35/48/16 34/43/16
f 21/36/17 22/24/17 32/49/17 31/45/17
f 28/38/18 29/28/18 39/50/18 38/47/18
f 25/40/19 26/32/19 36/42/19 35/48/19
f 22/24/20 23/23/20 33/44/20 32/49/20
f 29/28/21 30/27/21 40/46/21 39/50/21
f 33/44/22 34/43/22 44/51/22 43/52/22
f 40/46/22 31/45/22 41/53/22 50/54/22
f 37/41/22 38/47/22 48/55/22 47/56/22
f 34/43/22 35/48/22 45/57/22 44/51/22
f 31/45/22 32/49/22 42/58/22 41/53/22
f 38/47/22 39/50/22 49/59/22 48/55/22
f 35/48/22 36/42/22 46/60/22 45/57/22
f 32/49/22 33/44/22 43/52/22 42/58/22
f 39/50/22 40/46/22 50/54/22 49/59/22
f 36/42/22 37/41/22 47/56/22 46/60/22
f 50/54/23 41/53/23 51/61/23 60/62/23
f 47/56/24 48/55/24 58/63/24 57/64/24
f 44/51/25 45/57/25 55/65/25 54/66/25
f 41/53/26 42/58/26 52/67/26 51/61/26
f 48/55/27 49/59/27 59/68/27 58/63/27
f 45/57/28 46/60/28 56/69/28 55/65/28
f 42/58/29 43/52/29 53/70/29 52/67/29
f 49/59/30 50/54/30 60/62/30 59/68/30
f 46/60/31 47/56/31 57/64/31 56/69/31
f 43/52/32 44/51/32 54/66/32 53/70/32
f 57/64/22 58/63/22 68/71/22 67/72/22
f 54/66/22 55/65/22 65/73/22 64/74/22
f 51/61/22 52/67/22 62/75/22 61/76/22
f 58/63/22 59/68/22 69/77/22 68/71/22
f 55/65/22 56/69/22 66/78/22 65/73/22
f 52/67/22 53/70/22 63/79/22 62/75/22
f 59/68/22 60/62/22 70/80/22 69/77/22
f 56/69/22 57/64/22 67/72/22 66/78/22
f 53/70/22 54/66/22 64/74/22 63/79/22
f 60/62/22 51/61/22 61/76/22 70/80/22
f 64/74/33 65/73/33 75/81/33 74/82/33
f 61/76/34 62/75/34 72/83/34 71/84/34
f 68/71/35 69/77/35 79/85/35 78/86/35
f 65/73/36 66/78/36 76/87/36 75/81/36
f 62/75/37 63/79/37 73/88/37 72/83/37
f 69/77/38 70/80/38 80/89/38 79/85/38
f 66/78/39 67/72/39 77/90/39 76/87/39
f 63/79/40 64/74/40 74/82/40 73/88/40
f 70/80/41 61/76/41 71/84/41 80/89/41
f 67/72/42 68/71/42 78/86/42 77/90/42
f 72/83/22 73/88/22 74/82/22 71/84/22
f 75/81/22 80/89/22 71/84/22 74/82/22
f 76/87/22 79/85/22 80/89/22 75/81/22
f 77/90/22 78/86/22 79/85/22 76/87/22
f 84/91/43 85/92/43 91/93/43 90/94/43
f 82/95/27 83/96/27 89/97/27 88/98/27
f 85/92/32 86/99/32 92/100/32 91/93/32
f 83/96/44 84/91/44 90/94/44 89/97/44
f 81/101/45 82/95/45 88/98/45 87/102/45
f 86/99/46 81/101/46 87/102/46 92/100/46
f 89/97/22 92/100/22 87/102/22 88/98/22
f 90/94/22 91/93/22 92/100/22 89/97/22
f 5/19/11 4/13/11 7/10/11 6/9/11
f 4/13/11 3/2/11 8/17/11 7/10/11
f 3/2/11 2/1/11 9/5/11 8/17/11
f 2/1/11 1/15/11 10/6/11 9/5/11
