# Blender v3.0.0 OBJ File: 'FastFood LowPoly Pack.blend'
# www.blender.org
mtllib Donut_1.mtl
o Donut_1_Torus.002
v 1.200838 -0.051648 0.003475
v 0.380821 -0.033366 0.006179
v 0.504497 -0.332237 0.005738
v 0.794641 -0.456530 0.003930
v 1.082380 -0.339263 0.003425
v 0.947463 -0.087128 -0.713016
v 0.325324 0.019067 -0.253352
v 0.408198 -0.337703 -0.305068
v 0.641032 -0.457822 -0.474084
v 0.873064 -0.328875 -0.648200
v 0.360764 -0.017279 -1.173585
v 0.108524 -0.039497 -0.387708
v 0.146796 -0.339022 -0.496004
v 0.235425 -0.457822 -0.768774
v 0.324053 -0.328875 -1.047079
v -0.384136 -0.108761 -1.132134
v -0.148288 0.003723 -0.404030
v -0.177305 -0.339901 -0.495525
v -0.265933 -0.458700 -0.768295
v -0.354562 -0.339901 -1.041065
v -0.999683 -0.053093 -0.712014
v -0.347627 -0.046130 -0.232902
v -0.440309 -0.338583 -0.304589
v -0.671540 -0.458700 -0.473604
v -0.903572 -0.339901 -0.642185
v -1.201482 -0.127487 0.003594
v -0.467422 0.051347 0.008838
v -0.544316 -0.332237 0.005738
v -0.827786 -0.456530 0.003929
v -1.113663 -0.339263 0.003425
v -1.012348 -0.032244 0.725308
v -0.359218 -0.027048 0.250199
v -0.450034 -0.322572 0.317158
v -0.679277 -0.445963 0.484228
v -0.913013 -0.324359 0.653732
v -0.404412 -0.098130 1.140186
v -0.166557 0.025761 0.417891
v -0.190856 -0.317592 0.509300
v -0.279485 -0.436391 0.782070
v -0.373370 -0.308937 1.057689
v 0.335265 -0.011115 1.174300
v 0.091277 -0.022129 0.399164
v 0.133245 -0.317592 0.509300
v 0.221873 -0.436391 0.782070
v 0.305244 -0.308937 1.057689
v 0.934830 -0.099147 0.708953
v 0.311413 0.020437 0.261903
v 0.398473 -0.322572 0.317158
v 0.633294 -0.445963 0.484228
v 0.863623 -0.324359 0.653733
v 1.248834 -0.036157 0.004327
v 1.122113 0.276743 0.003225
v 0.793902 0.434263 -0.001168
v 0.462275 0.308171 -0.000102
v 0.986803 -0.072958 -0.740227
v 0.907800 0.321332 -0.695236
v 0.644631 0.458700 -0.503567
v 0.376599 0.314834 -0.301765
v 0.334296 -0.015199 0.004837
v 0.287103 0.038046 -0.227143
v 0.374880 -0.002541 -1.220387
v 0.335645 0.321937 -1.111186
v 0.234525 0.458139 -0.801443
v 0.134084 0.310004 -0.481542
v 0.094232 -0.019836 -0.343848
v -0.399988 -0.093842 -1.176526
v -0.369224 0.271841 -1.082834
v -0.269897 0.422032 -0.781574
v -0.168470 0.291444 -0.470240
v -0.133570 0.023140 -0.360390
v -1.038790 -0.037396 -0.739983
v -0.937639 0.267900 -0.666715
v -0.676258 0.405509 -0.476103
v -0.414904 0.280205 -0.282035
v -1.248834 -0.113165 0.002751
v -1.158285 0.272035 0.003750
v -0.839020 0.417102 0.005841
v -0.515767 0.292040 0.008485
v -0.310800 -0.027011 -0.205148
v -0.421336 0.070534 0.009467
v -1.052473 -0.017718 0.752853
v -0.955373 0.294492 0.681198
v -0.697312 0.438993 0.492452
v -0.432268 0.307425 0.301489
v -0.321951 -0.007628 0.223046
v -0.419815 -0.084376 1.185460
v -0.397491 0.315555 1.103247
v -0.296914 0.452403 0.793840
v -0.192146 0.315071 0.482162
v -0.152216 0.045018 0.374003
v 0.350256 0.004040 1.220387
v 0.308237 0.316292 1.103324
v 0.208313 0.452412 0.793692
v 0.110901 0.314820 0.481721
v 0.076862 -0.003414 0.355167
v 0.973229 -0.083905 0.736390
v 0.890702 0.294304 0.681509
v 0.624602 0.439012 0.493252
v 0.359947 0.307120 0.300707
v 0.274012 0.038649 0.234220
vt 0.875000 0.375000
vt 0.875000 0.375000
vt 0.875000 0.375000
vt 0.875000 0.375000
vt 0.875000 0.375000
vt 0.875000 0.375000
vt 0.875000 0.375000
vt 0.875000 0.375000
vt 0.875000 0.375000
vt 0.875000 0.375000
vt 0.875000 0.375000
vt 0.875000 0.375000
vt 0.875000 0.375000
vt 0.875000 0.375000
vt 0.875000 0.375000
vt 0.875000 0.375000
vt 0.875000 0.375000
vt 0.875000 0.375000
vt 0.875000 0.375000
vt 0.875000 0.375000
vt 0.875000 0.375000
vt 0.875000 0.375000
vt 0.875000 0.375000
vt 0.875000 0.375000
vt 0.875000 0.375000
vt 0.875000 0.375000
vt 0.875000 0.375000
vt 0.875000 0.375000
vt 0.875000 0.375000
vt 0.875000 0.375000
vt 0.875000 0.375000
vt 0.875000 0.375000
vt 0.625000 0.375000
vt 0.625000 0.375000
vt 0.625000 0.375000
vt 0.625000 0.375000
vt 0.875000 0.375000
vt 0.625000 0.375000
vt 0.625000 0.375000
vt 0.875000 0.375000
vt 0.875000 0.375000
vt 0.875000 0.375000
vt 0.875000 0.375000
vt 0.875000 0.375000
vt 0.875000 0.375000
vt 0.875000 0.375000
vt 0.875000 0.375000
vt 0.625000 0.375000
vt 0.625000 0.375000
vt 0.625000 0.375000
vt 0.625000 0.375000
vt 0.875000 0.375000
vt 0.875000 0.375000
vt 0.875000 0.375000
vt 0.875000 0.375000
vt 0.875000 0.375000
vt 0.875000 0.375000
vt 0.625000 0.375000
vt 0.625000 0.375000
vt 0.625000 0.375000
vt 0.625000 0.375000
vt 0.875000 0.375000
vt 0.875000 0.375000
vt 0.875000 0.375000
vt 0.875000 0.375000
vt 0.875000 0.375000
vt 0.875000 0.375000
vt 0.625000 0.375000
vt 0.625000 0.375000
vt 0.625000 0.375000
vt 0.625000 0.375000
vt 0.875000 0.375000
vt 0.625000 0.375000
vt 0.625000 0.375000
vt 0.875000 0.375000
vt 0.875000 0.375000
vt 0.875000 0.375000
vt 0.875000 0.375000
vt 0.875000 0.375000
vt 0.875000 0.375000
vt 0.625000 0.375000
vt 0.625000 0.375000
vt 0.625000 0.375000
vt 0.625000 0.375000
vt 0.625000 0.375000
vt 0.625000 0.375000
vt 0.625000 0.375000
vt 0.625000 0.375000
vt 0.625000 0.375000
vt 0.625000 0.375000
vt 0.625000 0.375000
vt 0.625000 0.375000
vt 0.625000 0.375000
vt 0.625000 0.375000
vt 0.625000 0.375000
vt 0.625000 0.375000
vt 0.625000 0.375000
vt 0.625000 0.375000
vt 0.625000 0.375000
vt 0.625000 0.375000
vt 0.625000 0.375000
vt 0.625000 0.375000
vt 0.625000 0.375000
vt 0.625000 0.375000
vt 0.625000 0.375000
vt 0.625000 0.375000
vt 0.625000 0.375000
vt 0.625000 0.375000
vt 0.625000 0.375000
vt 0.625000 0.375000
vt 0.625000 0.375000
vt 0.625000 0.375000
vt 0.625000 0.375000
vt 0.625000 0.375000
vt 0.625000 0.375000
vt 0.625000 0.375000
vt 0.625000 0.375000
vt 0.625000 0.375000
vt 0.625000 0.375000
vt 0.625000 0.375000
vn -0.9251 -0.3090 0.2208
vn -0.3847 -0.9139 0.1297
vn 0.3878 -0.9122 -0.1319
vn 0.8862 -0.3587 -0.2931
vn -0.5128 -0.2915 0.8075
vn -0.2346 -0.9162 0.3248
vn 0.2479 -0.9067 -0.3412
vn 0.5462 -0.3696 -0.7517
vn -0.0477 -0.2969 0.9537
vn 0.0024 -0.9168 0.3993
vn 0.0069 -0.9120 -0.4100
vn -0.0042 -0.3720 -0.9282
vn 0.6069 -0.3045 0.7342
vn 0.2346 -0.9160 0.3255
vn -0.2347 -0.9168 -0.3230
vn -0.5469 -0.3665 -0.7527
vn 0.8754 -0.2644 0.4046
vn 0.3872 -0.9117 0.1378
vn -0.3787 -0.9176 -0.1212
vn -0.8848 -0.3666 -0.2876
vn -0.1867 -0.8967 0.4014
vn 0.1069 -0.9439 0.3126
vn -0.0326 -0.8853 0.4638
vn 0.0965 -0.9488 0.3007
vn 0.8971 -0.2554 -0.3604
vn 0.4061 -0.9082 -0.1013
vn -0.3766 -0.9162 0.1370
vn -0.8858 -0.3691 0.2813
vn -0.4248 -0.8992 -0.1046
vn -0.4215 -0.9026 0.0876
vn -0.2332 -0.9532 0.1923
vn -0.2548 -0.9482 0.1896
vn 0.6184 -0.2923 -0.7295
vn 0.2563 -0.9130 -0.3175
vn -0.2302 -0.9116 0.3406
vn -0.5500 -0.3717 0.7479
vn 0.4036 -0.8947 0.1915
vn -0.2708 -0.9468 -0.1740
vn -0.2357 -0.9463 -0.2213
vn -0.0727 -0.9070 -0.4147
vn -0.0555 -0.3018 -0.9518
vn 0.0000 -0.9168 -0.3993
vn 0.0000 -0.9077 0.4197
vn -0.0000 -0.3645 0.9312
vn 0.0964 -0.9460 -0.3095
vn 0.3180 -0.9464 0.0571
vn -0.2076 -0.8980 -0.3878
vn 0.1150 -0.9506 -0.2882
vn -0.5171 -0.3111 -0.7974
vn -0.2506 -0.9140 -0.3190
vn 0.2283 -0.9093 0.3479
vn 0.5407 -0.3552 0.7625
vn 0.4181 -0.8902 -0.1809
vn 0.3046 -0.9506 -0.0604
vn 0.2677 -0.8669 -0.4205
vn 0.2284 -0.8483 0.4778
vn -0.9143 -0.3212 -0.2469
vn -0.3955 -0.9118 -0.1103
vn 0.3744 -0.9156 0.1465
vn 0.8815 -0.3591 0.3066
vn 0.9111 0.2836 -0.2992
vn 0.4253 0.9018 -0.0769
vn -0.3658 0.9197 0.1425
vn -0.8953 0.3593 0.2633
vn 0.5925 0.2610 -0.7622
vn 0.2374 0.9148 -0.3266
vn -0.2505 0.9094 0.3320
vn -0.5577 0.3776 0.7392
vn -0.0735 0.2805 -0.9570
vn -0.0812 0.9024 -0.4232
vn -0.0463 0.9138 0.4036
vn 0.0085 0.3823 0.9240
vn -0.5412 0.3017 -0.7849
vn -0.2662 0.9043 -0.3339
vn 0.2040 0.9246 0.3217
vn 0.5504 0.3750 0.7460
vn -0.9210 0.2843 -0.2663
vn -0.3943 0.9077 -0.1436
vn 0.3643 0.9263 0.0962
vn 0.8817 0.3735 0.2881
vn -0.9316 0.2748 0.2379
vn -0.4229 0.9016 0.0908
vn 0.3556 0.9230 -0.1469
vn 0.8851 0.3771 -0.2728
vn -0.5559 0.2636 0.7884
vn -0.2721 0.9085 0.3172
vn 0.2185 0.9182 -0.3304
vn 0.5479 0.3786 -0.7460
vn -0.0390 0.2683 0.9626
vn -0.0005 0.9150 0.4035
vn -0.0000 0.9150 -0.4034
vn 0.0003 0.3706 -0.9288
vn 0.5912 0.2937 0.7511
vn 0.2634 0.9102 0.3197
vn -0.2142 0.9171 -0.3362
vn -0.5416 0.3606 -0.7593
vn 0.8962 0.2980 0.3286
vn 0.4171 0.9002 0.1254
vn -0.3592 0.9246 -0.1270
vn -0.8846 0.3516 -0.3063
usemtl Textures
s off
f 2/1/1 7/2/1 8/3/1 3/4/1
f 3/4/2 8/3/2 9/5/2 4/6/2
f 4/6/3 9/5/3 10/7/3 5/8/3
f 5/8/4 10/7/4 6/9/4 1/10/4
f 7/2/5 12/11/5 13/12/5 8/3/5
f 8/3/6 13/12/6 14/13/6 9/5/6
f 9/5/7 14/13/7 15/14/7 10/7/7
f 10/7/8 15/14/8 11/15/8 6/9/8
f 12/11/9 17/16/9 18/17/9 13/12/9
f 13/12/10 18/17/10 19/18/10 14/13/10
f 14/13/11 19/18/11 20/19/11 15/14/11
f 15/14/12 20/19/12 16/20/12 11/15/12
f 17/16/13 22/21/13 23/22/13 18/17/13
f 18/17/14 23/22/14 24/23/14 19/18/14
f 19/18/15 24/23/15 25/24/15 20/19/15
f 20/19/16 25/24/16 21/25/16 16/20/16
f 22/21/17 27/26/17 28/27/17 23/22/17
f 23/22/18 28/27/18 29/28/18 24/23/18
f 24/23/19 29/28/19 30/29/19 25/24/19
f 25/24/20 30/29/20 26/30/20 21/25/20
f 17/16/21 12/11/21 65/31/21 70/32/21
f 41/33/22 46/34/22 96/35/22 91/36/22
f 12/11/23 7/2/23 60/37/23 65/31/23
f 36/38/24 41/33/24 91/36/24 86/39/24
f 27/26/25 32/40/25 33/41/25 28/27/25
f 28/27/26 33/41/26 34/42/26 29/28/26
f 29/28/27 34/42/27 35/43/27 30/29/27
f 30/29/28 35/43/28 31/44/28 26/30/28
f 7/2/29 2/1/29 59/45/29 60/37/29
f 2/1/30 47/46/30 100/47/30 59/45/30
f 31/48/31 36/38/31 86/39/31 81/49/31
f 26/50/32 31/48/32 81/49/32 75/51/32
f 32/40/33 37/52/33 38/53/33 33/41/33
f 33/41/34 38/53/34 39/54/34 34/42/34
f 34/42/35 39/54/35 40/55/35 35/43/35
f 35/43/36 40/55/36 36/56/36 31/44/36
f 22/21/37 17/16/37 70/32/37 79/57/37
f 21/58/38 26/50/38 75/51/38 71/59/38
f 16/60/39 21/58/39 71/59/39 66/61/39
f 47/46/40 42/62/40 95/63/40 100/47/40
f 37/52/41 42/62/41 43/64/41 38/53/41
f 38/53/42 43/64/42 44/65/42 39/54/42
f 39/54/43 44/65/43 45/66/43 40/55/43
f 40/55/44 45/66/44 41/67/44 36/56/44
f 11/68/45 16/60/45 66/61/45 61/69/45
f 46/34/46 1/70/46 51/71/46 96/35/46
f 42/62/47 37/52/47 90/72/47 95/63/47
f 6/73/48 11/68/48 61/69/48 55/74/48
f 42/62/49 47/46/49 48/75/49 43/64/49
f 43/64/50 48/75/50 49/76/50 44/65/50
f 44/65/51 49/76/51 50/77/51 45/66/51
f 45/66/52 50/77/52 46/78/52 41/67/52
f 37/52/53 32/40/53 85/79/53 90/72/53
f 1/70/54 6/73/54 55/74/54 51/71/54
f 32/40/55 27/26/55 80/80/55 85/79/55
f 27/26/56 22/21/56 79/57/56 80/80/56
f 47/46/57 2/1/57 3/4/57 48/75/57
f 48/75/58 3/4/58 4/6/58 49/76/58
f 49/76/59 4/6/59 5/8/59 50/77/59
f 50/77/60 5/8/60 1/10/60 46/78/60
f 51/71/61 55/74/61 56/81/61 52/82/61
f 52/82/62 56/81/62 57/83/62 53/84/62
f 53/84/63 57/83/63 58/85/63 54/86/63
f 54/86/64 58/85/64 60/87/64 59/88/64
f 55/74/65 61/69/65 62/89/65 56/81/65
f 56/81/66 62/89/66 63/90/66 57/83/66
f 57/83/67 63/90/67 64/91/67 58/85/67
f 58/85/68 64/91/68 65/92/68 60/87/68
f 61/69/69 66/61/69 67/93/69 62/89/69
f 62/89/70 67/93/70 68/94/70 63/90/70
f 63/90/71 68/94/71 69/95/71 64/91/71
f 64/91/72 69/95/72 70/96/72 65/92/72
f 66/61/73 71/59/73 72/97/73 67/93/73
f 67/93/74 72/97/74 73/98/74 68/94/74
f 68/94/75 73/98/75 74/99/75 69/95/75
f 69/95/76 74/99/76 79/100/76 70/96/76
f 71/59/77 75/51/77 76/101/77 72/97/77
f 72/97/78 76/101/78 77/102/78 73/98/78
f 73/98/79 77/102/79 78/103/79 74/99/79
f 74/99/80 78/103/80 80/104/80 79/100/80
f 75/51/81 81/49/81 82/105/81 76/101/81
f 76/101/82 82/105/82 83/106/82 77/102/82
f 77/102/83 83/106/83 84/107/83 78/103/83
f 78/103/84 84/107/84 85/108/84 80/104/84
f 81/49/85 86/39/85 87/109/85 82/105/85
f 82/105/86 87/109/86 88/110/86 83/106/86
f 83/106/87 88/110/87 89/111/87 84/107/87
f 84/107/88 89/111/88 90/112/88 85/108/88
f 86/39/89 91/36/89 92/113/89 87/109/89
f 87/109/90 92/113/90 93/114/90 88/110/90
f 88/110/91 93/114/91 94/115/91 89/111/91
f 89/111/92 94/115/92 95/116/92 90/112/92
f 91/36/93 96/35/93 97/117/93 92/113/93
f 92/113/94 97/117/94 98/118/94 93/114/94
f 93/114/95 98/118/95 99/119/95 94/115/95
f 94/115/96 99/119/96 100/120/96 95/116/96
f 96/35/97 51/71/97 52/82/97 97/117/97
f 97/117/98 52/82/98 53/84/98 98/118/98
f 98/118/99 53/84/99 54/86/99 99/119/99
f 99/119/100 54/86/100 59/88/100 100/120/100
